<?xml version="1.0" standalone="no"?>
<!DOCTYPE svg PUBLIC "-//W3C//DTD SVG 20010904//EN"
 "http://www.w3.org/TR/2001/REC-SVG-20010904/DTD/svg10.dtd">
<svg version="1.0" xmlns="http://www.w3.org/2000/svg"
 width="64.000000pt" height="64.000000pt" viewBox="0 0 64.000000 64.000000"
 preserveAspectRatio="xMidYMid meet">

<g transform="translate(0.000000,64.000000) scale(0.100000,-0.100000)"
fill="rgba(27, 34, 49,.5)" stroke="none">
<path d="M262 577 c-32 -32 -42 -51 -42 -75 0 -31 -2 -32 -40 -32 -29 0 -40 4
-40 15 0 10 -10 15 -30 15 -28 0 -30 -2 -30 -40 0 -38 -2 -40 -30 -40 -27 0
-30 -3 -30 -30 0 -27 3 -30 30 -30 l30 0 0 -125 c0 -104 -2 -125 -15 -125 -8
0 -15 -9 -15 -20 0 -11 -7 -20 -15 -20 -10 0 -15 -10 -15 -30 l0 -30 300 0
300 0 0 30 c0 20 -5 30 -15 30 -8 0 -15 9 -15 20 0 11 -7 20 -15 20 -13 0 -15
21 -15 125 l0 125 30 0 c27 0 30 3 30 30 0 27 -3 30 -30 30 -28 0 -30 2 -30
40 0 38 -2 40 -30 40 -20 0 -30 -5 -30 -15 0 -11 -11 -15 -40 -15 -38 0 -40 1
-40 32 0 24 -10 43 -42 75 -23 24 -49 43 -58 43 -9 0 -35 -19 -58 -43z m100
-14 l38 -37 0 -208 c0 -132 -4 -208 -10 -208 -6 0 -10 27 -10 60 0 65 -21 100
-60 100 -39 0 -60 -35 -60 -100 0 -33 -4 -60 -10 -60 -6 0 -10 76 -10 207 l0
207 37 38 c20 21 39 38 42 38 3 0 22 -17 43 -37z m-242 -113 c0 -16 -4 -30
-10 -30 -5 0 -10 14 -10 30 0 17 5 30 10 30 6 0 10 -13 10 -30z m420 0 c0 -16
-4 -30 -10 -30 -5 0 -10 14 -10 30 0 17 5 30 10 30 6 0 10 -13 10 -30z m-320
-15 c0 -11 -11 -15 -40 -15 -29 0 -40 4 -40 15 0 11 11 15 40 15 29 0 40 -4
40 -15z m280 0 c0 -11 -11 -15 -40 -15 -29 0 -40 4 -40 15 0 11 11 15 40 15
29 0 40 -4 40 -15z m-280 -45 c0 -6 -37 -10 -90 -10 -53 0 -90 4 -90 10 0 6
37 10 90 10 53 0 90 -4 90 -10z m380 0 c0 -6 -37 -10 -90 -10 -53 0 -90 4 -90
10 0 6 37 10 90 10 53 0 90 -4 90 -10z m-380 -155 l0 -125 -60 0 -60 0 0 125
0 125 60 0 60 0 0 -125z m320 0 l0 -125 -60 0 -60 0 0 125 0 125 60 0 60 0 0
-125z m-192 3 c7 -7 12 -38 12 -70 l0 -58 -40 0 -40 0 0 58 c0 59 11 82 40 82
9 0 21 -5 28 -12z m222 -158 c0 -6 -90 -10 -250 -10 -160 0 -250 4 -250 10 0
6 90 10 250 10 160 0 250 -4 250 -10z m30 -40 c0 -6 -100 -10 -280 -10 -180 0
-280 4 -280 10 0 6 100 10 280 10 180 0 280 -4 280 -10z"/>
<path d="M280 530 c-11 -11 -20 -29 -20 -40 0 -26 34 -60 60 -60 26 0 60 34
60 60 0 11 -9 29 -20 40 -11 11 -29 20 -40 20 -11 0 -29 -9 -40 -20z m70 -15
c26 -32 -13 -81 -47 -59 -23 14 -28 41 -13 59 16 19 44 19 60 0z"/>
<path d="M310 500 c0 -13 7 -20 20 -20 24 0 25 6 6 26 -20 19 -26 18 -26 -6z"/>
<path d="M260 355 l0 -55 60 0 60 0 0 55 0 55 -60 0 -60 0 0 -55z m50 0 c0
-24 -5 -35 -15 -35 -10 0 -15 11 -15 35 0 24 5 35 15 35 10 0 15 -11 15 -35z
m50 0 c0 -24 -5 -35 -15 -35 -10 0 -15 11 -15 35 0 24 5 35 15 35 10 0 15 -11
15 -35z"/>
<path d="M120 300 l0 -40 40 0 40 0 0 40 0 40 -40 0 -40 0 0 -40z m60 0 c0
-13 -7 -20 -20 -20 -13 0 -20 7 -20 20 0 13 7 20 20 20 13 0 20 -7 20 -20z"/>
<path d="M120 200 l0 -40 40 0 40 0 0 40 0 40 -40 0 -40 0 0 -40z m60 0 c0
-13 -7 -20 -20 -20 -13 0 -20 7 -20 20 0 13 7 20 20 20 13 0 20 -7 20 -20z"/>
<path d="M440 300 l0 -40 40 0 40 0 0 40 0 40 -40 0 -40 0 0 -40z m60 0 c0
-13 -7 -20 -20 -20 -13 0 -20 7 -20 20 0 13 7 20 20 20 13 0 20 -7 20 -20z"/>
<path d="M440 200 l0 -40 40 0 40 0 0 40 0 40 -40 0 -40 0 0 -40z m60 0 c0
-13 -7 -20 -20 -20 -13 0 -20 7 -20 20 0 13 7 20 20 20 13 0 20 -7 20 -20z"/>
</g>
</svg>
