<?xml version="1.0" standalone="no"?>
<!DOCTYPE svg PUBLIC "-//W3C//DTD SVG 20010904//EN"
 "http://www.w3.org/TR/2001/REC-SVG-20010904/DTD/svg10.dtd">
<svg version="1.0" xmlns="http://www.w3.org/2000/svg"
 width="235.000000pt" height="150.000000pt" viewBox="0 0 235.000000 150.000000"
 preserveAspectRatio="xMidYMid meet">

<g transform="translate(0.000000,150.000000) scale(0.100000,-0.100000)"
fill="#000000" stroke="none">
<path d="M2091 1433 c-68 -117 -210 -365 -416 -724 -109 -191 -206 -357 -216
-370 -18 -23 -19 -8 -19 559 l0 582 -85 0 -85 0 0 -735 0 -735 103 0 102 1
100 176 c55 97 151 264 214 372 63 108 157 270 209 361 52 91 146 255 210 365
63 110 117 203 119 208 2 4 -41 7 -96 7 l-100 0 -40 -67z"/>
<path d="M70 1396 l0 -86 244 0 c134 0 267 -5 297 -10 67 -13 116 -45 154
-100 28 -40 30 -50 30 -131 0 -81 -2 -90 -30 -130 -17 -24 -53 -57 -79 -74
l-49 -30 -284 -3 -283 -3 0 -415 0 -414 90 0 90 0 0 330 0 330 193 0 c224 0
264 8 359 73 67 46 138 138 158 204 7 21 14 70 17 108 13 169 -80 325 -237
399 l-65 31 -302 3 -303 3 0 -85z"/>
<path d="M1983 518 c-49 -80 -75 -138 -70 -150 3 -7 51 -89 105 -183 l99 -170
97 -3 c53 -1 96 0 96 4 0 7 -289 514 -300 527 -4 5 -16 -6 -27 -25z"/>
<path d="M512 460 c2 -5 59 -108 128 -229 l125 -220 98 -1 c53 0 97 3 97 7 0
3 -21 43 -46 87 -91 158 -121 212 -163 289 l-42 77 -101 0 c-60 0 -98 -4 -96
-10z"/>
</g>
</svg>
